<svg width="40" height="64" viewBox="0 0 40 64" fill="none" xmlns="http://www.w3.org/2000/svg">
<path d="M40 32.1947C40 14.4097 31.0484 0 20 0C8.95161 0 0 14.4097 0 32.1947C0 48.2635 7.31371 61.5828 16.875 64L11.7944 41.5013L11.7944 32.1947H16.875V25.1015C16.875 17.0333 19.8589 12.5767 24.429 12.5767C26.6177 12.5767 28.9064 13.205 28.9064 13.205V21.1239H26.3839C23.9 21.1239 23.125 23.606 23.125 26.1517V32.1947H28.6718L27.7847 41.5013H23.125V64C32.6863 61.5828 40 48.2635 40 32.1947Z" fill="black"/>
</svg>
