<svg width="40" height="64" viewBox="0 0 40 64" fill="none" xmlns="http://www.w3.org/2000/svg">
<path d="M35.8884 15.95C35.9138 16.6499 35.9138 17.3501 35.9138 18.05C35.9138 39.3999 27.6651 64 12.5889 64C7.94418 64 3.62947 61.3499 5.36442e-06 56.7501C0.65993 56.9 1.29439 56.95 1.9797 56.95C5.81214 56.95 9.34012 54.4001 12.1574 50.0501C8.55332 49.9 5.533 45.2501 4.49237 38.85C5.00002 38.9999 5.5076 39.1 6.04065 39.1C6.77667 39.1 7.51277 38.8999 8.19801 38.5501C4.44166 37.0499 1.62431 30.55 1.62431 22.7V22.5001C2.71564 23.7001 3.98479 24.4501 5.32987 24.55C3.12174 21.6499 1.67509 16.7 1.67509 11.0999C1.67509 8.09998 2.08111 5.34998 2.79181 2.94996C6.82738 12.75 12.8934 19.1498 19.6954 19.85C19.5685 18.65 19.4923 17.4001 19.4923 16.1501C19.4923 7.24995 23.1472 3.43323e-05 27.6903 3.43323e-05C30.0507 3.43323e-05 32.1827 1.95003 33.6802 5.10003C35.533 4.40007 37.3096 3.05 38.8833 1.20004C38.2741 4.95013 36.9797 8.10013 35.2792 10.1C36.929 9.75016 38.528 8.84996 40 7.60009C38.8834 10.8 37.4874 13.6498 35.8884 15.95Z" fill="black"/>
</svg>
